<?xml version="1.0" encoding="UTF-8"?>
<svg id="Camada_2" data-name="Camada 2" xmlns="http://www.w3.org/2000/svg" viewBox="0 0 209.32 285.73">
  <defs>
    <style>
      .cls-1 {
        fill: #fff;
        stroke-width: 0px;
      }
    </style>
  </defs>
  <g id="Camada_1-2" data-name="Camada 1">
    <g>
      <path class="cls-1" d="M108.13,0h-6.95C45.39,0,0,45.39,0,101.18v83.36c0,55.8,45.39,101.19,101.18,101.19h6.95c55.79,0,101.18-45.4,101.18-101.19v-83.36C209.32,45.39,163.92,0,108.13,0ZM101.18,4h6.95c53.59,0,97.18,43.6,97.18,97.18v66.6c-7.17-2.39-14.8-4.54-22.87-6.4-.98-.23-1.97-.45-2.95-.67.02.1.03.22.05.32,0,.02,0,.03,0,.04,0,.14.05.25.06.38.35,2.37.67,4.77.97,7.14.35,2.76.67,5.52.95,8.27.27,2.71.57,5.45.31,8.17-.49,4.79-3.6,8.42-7.32,11.23-3.9,2.95-8.23,5.32-12.67,7.36-9.26,4.21-19.25,6.67-29.24,8.39-10.99,1.89-22.17,3.05-33.36,3.24-1.09.03-2.19.04-3.3.04-20.09,0-43.96-3.34-60.49-14.57-.02,0-.03-.02-.05-.02-1.08-.75-1.75-1.34-2.59-2.05,0-.02-.02-.02-.03-.03-.14-.11-.28-.22-.41-.34-.17-.11-.31-.26-.48-.39,0-.03-.05-.04-.06-.05-.02-.02-.04-.03-.05-.05,0,0,0-.02-.02-.02h0s-.04-.04-.05-.06h0s-.06-.07-.06-.07l-.45-.47c-3.92-3.61-4.37-9.97-3.9-15.11.65-6.88,1.47-13.73,2.39-20.58.04-.27.08-.55.11-.84t-.02,0c-9.15,2-17.78,4.37-25.81,7.04v-66.53C4,47.6,47.6,4,101.18,4Z"/>
      <path class="cls-1" d="M41.66,108.73c.3.81.68,1.61,1.11,2.38,2.21,4.01,5.77,6.64,9.91,8.41,4,1.73,8.49,2.84,11.89,5.69,1.48,1.23,2.65,2.7,3.3,4.52.69,1.91,1.12,3.97,2.28,5.67,2.73,3.94,8.21,3.9,12.35,2.62,4.53-1.41,8.3-4.34,12.02-7.2,3.82-2.95,7.75-5.65,12.5-6.9,4.27-1.15,8.78-1.1,12.94.48,3.79,1.43,7.09,4.16,9.01,7.74,1.92,3.51,2.43,7.59,2.65,11.53.15,2.64.17,5.27.29,7.9,0,.14,0,.26.02.39.03.67.07,1.34.13,2.01h0s0,0,0,0c0,.12.02.24.03.36.01.14.02.28.03.43.06.55.11,1.09.19,1.63.04.25.08.52.11.77.01.08.03.16.04.24.12.8.28,1.59.46,2.37.08.35.17.69.26,1.03.04.14.08.28.12.42.1.34.21.68.33,1.02.04.11.07.22.11.33.32.89.7,1.76,1.15,2.6.05.1.11.21.17.31.17.32.36.63.55.93.07.12.15.23.22.35.24.35.49.7.75,1.04.03.04.05.08.08.11.84,1.06,1.86,1.97,3,2.67.02.01.04.03.07.05.03.02.06.03.1.05.27.16.56.31.85.44.1.05.2.09.3.14.33.14.67.27,1.02.38,1.6.49,3.29.55,4.95.39.68-.06,1.35-.16,2.02-.29.12-.02.25-.06.37-.09.44-.09.89-.19,1.34-.3.23-.06.46-.13.69-.19.37-.1.74-.21,1.12-.33.23-.07.45-.15.68-.23.41-.14.81-.29,1.21-.45.18-.07.36-.14.54-.22,1.08-.46,2.14-.99,3.12-1.61,0,0,0,0,0,0,0,0,.01,0,.02-.01.91-.57,1.76-1.21,2.53-1.93.06-.05.1-.11.16-.16.09-.08.17-.16.26-.25.05-.06.1-.11.15-.17.14-.15.27-.3.4-.45.12-.14.23-.28.34-.42.1-.14.21-.27.3-.41.12-.17.23-.34.34-.51.08-.13.16-.25.23-.38.11-.19.21-.38.31-.58.06-.12.13-.24.18-.36.1-.21.19-.42.28-.64.05-.11.1-.23.14-.34.09-.23.17-.47.24-.7.03-.1.07-.2.1-.31.09-.3.17-.6.24-.9.01-.04.02-.09.03-.13.08-.36.16-.71.22-1.08.03-.16.05-.32.07-.48.01-.09.03-.17.04-.26,0,0,0-.01,0-.02h0c.04-.25.06-.5.09-.75,0-.07.02-.12.02-.19.08-.83.09-1.63.08-2.45-.08-4.87-1.07-9.75-1.74-14.57-.75-5.27-1.58-10.54-2.2-15.83-.25-2.3-.36-4.7.71-6.83.89-1.76,2.22-3.22,3.45-4.73.8-.97,1.55-1.94,2.22-3,.29.67.56,1.31.83,1.97,1.03,2.53,1.91,5.13,2.66,7.75,3.14,10.68,5.45,21.67,7.38,32.62.53,2.96.99,5.91,1.44,8.9.98.22,1.97.43,2.95.67-.05-.31-.08-.6-.13-.9-1.68-11.45-3.93-22.81-6.74-34.03-1.36-5.5-2.82-11-4.99-16.25-.54-1.32-1.15-2.68-1.87-3.98.47-1.59.64-3.29.47-4.96-.92-9.55-9.41-14.95-17.56-18.16-9.18-3.6-19.04-5.19-28.86-5.94-4.98-.38-9.96-.55-14.94-.65-4.52-.08-9.07-.07-13.58.28-8.87.68-18.19,2.64-25.54,7.94-3.44,2.48-6.49,6.11-6.09,10.63.38,4.33,3.26,7.98,6.93,10.11,4.12,2.4,9.03,3.19,13.68,3.89,4.61.69,9.28,1.11,13.95,1.22,17.66,2.08,35.71-3.04,53.09-5.91,2.83-.45,5.66-.9,8.5-1.18,2.42-.23,4.37.07,6.03,1.93.29.34.56.69.82,1.06-.17.36-.33.73-.54,1.09-1.91,3.27-4.99,5.67-6.46,9.24-.84,2.09-.92,4.36-.7,6.57.24,2.55.68,5.07,1.01,7.59.69,4.92,1.37,9.83,2.06,14.74.48,3.43,1.16,7.02.93,10.52,0,.08,0,.15,0,.23-.04.31-.08.61-.1.9,0,0,0,0,0,0,0,0,0,0,0,0-.02.23-.06.46-.1.68,0,.03,0,.06-.01.09h0c0,.06,0,.08-.03.13v.02c-.01.07-.03.14-.05.21-.07.34-.14.67-.23,1-.04.15-.09.29-.14.44-.07.24-.16.47-.25.7-.1.25-.2.49-.32.74-.1.22-.21.44-.33.65-.08.14-.16.29-.25.43-.2.31-.41.6-.65.89-.04.04-.06.09-.1.13-.03.04-.07.07-.1.1-.25.28-.51.55-.78.8-.13.12-.28.24-.42.36-.17.14-.35.28-.53.42-.22.17-.45.33-.69.49-.15.1-.3.19-.45.29-.56.34-1.12.65-1.71.93-1.78.84-3.71,1.48-5.63,1.93-2.07.5-4.27.72-6.33.1-.33-.1-.65-.23-.96-.37-.06-.03-.13-.06-.19-.09-.29-.14-.56-.31-.83-.48-.06-.04-.12-.09-.18-.13-.23-.16-.45-.34-.66-.52-.05-.04-.1-.08-.14-.12-.23-.21-.44-.44-.65-.67-.07-.07-.13-.15-.19-.22-.2-.23-.39-.48-.57-.73-.05-.07-.09-.14-.14-.21-.15-.21-.29-.43-.42-.65-.05-.08-.1-.17-.15-.25-.15-.27-.3-.54-.44-.82-.04-.09-.09-.18-.13-.27-.13-.28-.26-.56-.38-.85,0-.02-.01-.03-.02-.05-.26-.65-.49-1.31-.68-1.94-.08-.25-.14-.5-.21-.76-.07-.28-.15-.56-.22-.84-.12-.5-.22-1.01-.31-1.51-.04-.23-.08-.46-.11-.68-.08-.55-.16-1.1-.22-1.65,0-.03,0-.05-.01-.08-.03-.19-.04-.4-.06-.6,0-.06,0-.12,0-.18-.08-.66-.13-1.3-.16-1.96l-.03-.38c-.26-4.94-.04-9.96-1.02-14.8-.78-3.85-2.43-7.49-5.16-10.35-2.69-2.82-6.25-4.81-10.02-5.75-4.22-1.06-8.71-.83-12.86.38-4.41,1.29-8.23,3.7-11.84,6.47-3.51,2.69-7,5.65-11.2,7.17-3.33,1.22-8.46,1.96-10.46-1.78-.89-1.66-1.21-3.57-1.96-5.29-.76-1.75-1.96-3.3-3.4-4.53-3.19-2.76-7.17-4.15-11.03-5.64-3.88-1.5-7.58-3.41-9.9-6.98-2.08-3.19-3-7.12-2.24-10.87.72-3.64,2.72-7.03,5.74-9.26.62-.46.92-1.23.51-1.94-.37-.61-1.32-.98-1.94-.52-5.15,3.81-7.79,9.93-7.28,15.99.13,1.55.46,3.08,1.01,4.58ZM106.02,107.61c-2.7.14-5.44.22-8.15.18-1.28-.15-3.12-.3-4.37-.52-.92-.17-3.6-.74-4.51-.95l-3.38-1.12c-2.37-.72-4.53-1.89-5.79-4.11-1.97-3.53.68-7.32,3.81-9.02,1.88-1.01,4-1.51,6.1-1.86,2.45-.41,4.91-.65,7.36-.88,4.9-.43,9.83-.57,14.75-.46,2.52.03,5.02.13,7.51.37,2.1.21,4.32.56,6.23,1.51,3.32,1.62,5.68,5.05,4.08,8.75-1.66,3.91-5.85,5.55-9.73,6.38-4.56,1-9.28,1.46-13.92,1.73ZM161.16,100.58c-1.4-.1-2.81.11-4.19.28-1.45.17-2.87.36-4.31.57-2.84.44-5.68.91-8.5,1.45-5.56,1.03-11.07,2.19-16.63,3.15.21-.14.41-.27.63-.43,3.41-2.45,5.86-6.83,4.51-11.09-1.39-4.3-5.6-6.76-9.83-7.63-2.34-.46-4.77-.62-7.15-.73-2.69-.13-5.38-.2-8.08-.18-5.37.06-10.76.42-16.11,1.13-4.45.59-9.28,1.47-12.47,4.94-3.03,3.3-3.73,8.03-.87,11.68.78.98,1.69,1.76,2.68,2.4-1.25-.23-2.5-.52-3.74-.82-3.9-.96-7.92-2.61-10.16-6.13-.97-1.53-1.56-3.31-1.41-5.13.14-1.79,1.1-3.42,2.3-4.71,2.72-2.96,6.63-4.91,10.33-6.32,3.94-1.53,8.1-2.45,12.28-2.97,8.67-1.1,17.53-.82,26.22-.4,9.28.41,18.6,1.38,27.55,3.94,4.26,1.21,8.51,2.73,12.35,4.9,3.49,1.95,6.67,4.57,8.5,8.18.99,1.99,1.52,4.21,1.39,6.38-1.37-1.37-3.07-2.33-5.29-2.47Z"/>
      <path class="cls-1" d="M33.18,198.88s.02.02.03.03h0c.7.6,1.34,1.14,2.28,1.78-.02-.02-.04-.04-.07-.05.02.01.05.03.07.05-.09-.07-.19-.14-.28-.21-.73-.55-1.45-1.12-2.16-1.7-.05-.03-.1-.07-.15-.12.03.02.05.04.08.07-.03-.02-.05-.04-.08-.06.09.08.18.15.27.23Z"/>
      <path class="cls-1" d="M31.93,197.83l-.07-.06h0s0,.02.02.03.03.02.05.03Z"/>
    </g>
  </g>
</svg>