<?xml version="1.0" encoding="UTF-8"?>
<svg id="Camada_2" data-name="Camada 2" xmlns="http://www.w3.org/2000/svg" viewBox="0 0 598.95 134.76">
  <defs>
    <style>
      .cls-1 {
        fill: #000;
        stroke-width: 0px;
      }
    </style>
  </defs>
  <g id="Camada_1-2" data-name="Camada 1">
    <path class="cls-1" d="M64.64,0H2.85L0,17.74h1.36C3.72,10.42,6.2,1.36,15.38,1.36h13.78v82.14c0,5.22-3.11,7.08-5.84,7.08h-.74v1.36h22.33v-1.36h-.74c-2.73,0-5.83-1.86-5.83-7.08V1.36h13.77c9.18,0,11.67,9.06,14.02,16.38h1.37l-2.86-17.74Z"/>
    <path class="cls-1" d="M85.79,35.55c-9.68,0-24.32,8.32-28.91,37.85V10.61l-14.4,2.61v1.36h.75c2.73,0,5.83,1.86,5.83,7.08v61.04h7.82c3.12-34.43,17.38-41.81,24.44-41.81,6.45,0,9.06,5.95,9.06,14.89v26.92h7.94v-30.4c0-12.16-5.46-16.75-12.53-16.75Z"/>
    <path class="cls-1" d="M62.71,90.58c-2.61,0-5.83-1.86-5.83-7.07v-.81h-7.82v.81c0,5.21-3.1,7.07-5.83,7.07h-.75v1.37h20.97v-1.37h-.74ZM104.03,90.58c-2.61,0-5.71-1.86-5.71-7.07v-.81h-7.94v.81c0,5.21-3.1,7.07-5.71,7.07h-.87v1.37h21.1v-1.37h-.87Z"/>
    <path class="cls-1" d="M134.57,91.94c-17.62,0-29.41-14.52-29.41-34.25s11.79-34.12,29.53-34.12c13.03,0,25.69,7.94,25.69,27.79h-46.53c-.12,1.37-.12,2.85-.12,4.22,0,20.1,8.44,32.39,22.46,32.39,9.31,0,19.36-5.34,23.08-22.34l1.12.62c-2.85,15.14-10.8,25.69-25.81,25.69ZM151.94,50c-.74-15.14-7.44-25.07-18.36-25.07-10.3,0-18.12,8.81-19.61,25.07h37.97Z"/>
    <path class="cls-1" d="M210.22,52.05c-4.09,0-8.19-.25-12.41-.75v32.88c0,7.69,4.84,7.07,10.55,7.07v1.37h-26.31v-1.37h.74c2.73,0,5.83-1.86,5.83-7.07V9.12c0-5.21-3.1-7.07-5.83-7.07h-.74V.68h38.47c13.77,0,23.08,9.18,23.08,25.06,0,20.72-15.63,26.31-33.38,26.31ZM197.81,2.05v47.9c2.73.37,5.46.5,8.07.5,15.88,0,27.92-7.07,27.92-24.69,0-14.89-8.81-23.7-21.84-23.7h-14.15Z"/>
    <path class="cls-1" d="M289.14,30.96v-1.37l14.52-2.61v54.6c0,5.21,3.1,7.07,5.71,7.07h.87v1.37l-14.52,2.61v-36.48c-4.59,29.53-19.11,37.85-28.91,37.85-7.07,0-12.41-4.72-12.41-16.75v-39.21c0-5.33-3.1-7.07-5.83-7.07h-.74v-1.37l14.39-2.61v46.78c0,8.81,2.73,14.89,9.06,14.89,7.32,0,21.84-7.69,24.44-43.93v-6.7c0-5.33-3.1-7.07-5.71-7.07h-.87Z"/>
    <path class="cls-1" d="M338.77,25.62c10.92,0,18.74,8.69,21.84,21.84V11.72c0-5.21-3.23-7.07-5.83-7.07h-.74v-1.37l14.39-2.61v80.9c0,5.21,3.23,7.07,5.83,7.07h.74v1.37l-14.39,2.61v-20.47c-3.1,13.15-10.92,21.84-21.84,21.84-13.65,0-22.71-13.77-22.71-34.25s9.06-34.12,22.71-34.12ZM324.62,59.74c0,18.12,6.82,30.28,17.74,30.28s18.24-12.16,18.24-30.28-7.45-30.15-18.24-30.15-17.74,12.04-17.74,30.15Z"/>
    <path class="cls-1" d="M404.53,25.62c10.92,0,18.74,8.69,21.84,21.84V11.72c0-5.21-3.23-7.07-5.83-7.07h-.74v-1.37l14.39-2.61v80.9c0,5.21,3.23,7.07,5.83,7.07h.74v1.37l-14.39,2.61v-20.47c-3.1,13.15-10.92,21.84-21.84,21.84-13.65,0-22.71-13.77-22.71-34.25s9.06-34.12,22.71-34.12ZM390.39,59.74c0,18.12,6.82,30.28,17.74,30.28s18.24-12.16,18.24-30.28-7.45-30.15-18.24-30.15-17.74,12.04-17.74,30.15Z"/>
    <path class="cls-1" d="M466.7,91.26v1.37h-20.97v-1.37h.74c2.73,0,5.83-1.86,5.83-7.07v-46.16c0-5.33-3.1-7.07-5.83-7.07h-.74v-1.37l14.39-2.61v57.2c0,5.21,3.23,7.07,5.83,7.07h.75ZM454.54,4.65c3.72,0,6.58,2.98,6.58,6.58s-2.85,6.58-6.58,6.58-6.58-2.85-6.58-6.58,2.85-6.58,6.58-6.58Z"/>
    <path class="cls-1" d="M492.38,91.26v1.37h-20.97v-1.37h.74c2.73,0,5.83-1.86,5.83-7.07v-46.16c0-5.33-3.1-7.07-5.83-7.07h-.74v-1.37l14.39-2.61v36.48c4.59-29.53,19.23-37.85,28.91-37.85,7.07,0,12.53,4.59,12.53,16.75v41.82c0,5.21,3.1,7.07,5.71,7.07h.87v1.37h-21.09v-1.37h.87c2.61,0,5.71-1.86,5.71-7.07v-38.34c0-8.93-2.61-14.89-9.06-14.89-7.2,0-21.71,7.69-24.44,43.93v9.31c0,5.21,3.23,7.07,5.83,7.07h.74Z"/>
    <path class="cls-1" d="M44.91,90.58v1.36h-22.33v-1.36h.74c2.73,0,5.84-1.86,5.84-7.08v-.8h9.18v.8c0,5.22,3.1,7.08,5.83,7.08h.74Z"/>
    <path class="cls-1" d="M567.3,26.89c5.84,0,10.83,1.46,15.09,3.77,4.14-6.33,10.35-12.9,16.43-13.76l.12,9.98c-.97-.49-2.07-.73-3.29-.73-4.38,0-9.62,3.17-11.93,5.23,6.94,4.5,11.2,12.17,11.2,21.18,0,14.85-11.08,25.56-27.63,25.56-1.46,0-3.04,0-4.63-.24-6.94,1.1-18.63,6.45-18.63,15.09,0,3.53,1.95,5.84,6.82,5.84,11.56,0,17.65-13.39,30.31-13.39,8.03,0,15.46,5.36,15.46,16.92,0,9.01-4.38,17.29-15.1,17.29-7.3,0-15.34-3.9-17.89-9.5l5.11-7.91c2.07,9.13,5.96,14.85,14,14.85,8.89,0,12.54-6.7,12.54-14.12,0-9.74-6.09-13.88-12.78-13.88-13.88,0-16.68,17.41-30.19,17.41-7.79,0-11.08-5.6-11.08-11.32,0-10.23,11.08-15.7,18.63-17.77-12.17-2.68-20.09-12.42-20.09-24.83,0-14.85,11.08-25.69,27.51-25.69ZM567.3,76.92c11.56,0,19.23-8.03,19.23-24.35s-7.67-24.35-19.23-24.35-19.11,7.91-19.11,24.35,7.67,24.35,19.11,24.35Z"/>
    <g>
      <path class="cls-1" d="M151.66,134.37v-22.33h6.1c.92,0,1.76.12,2.5.37s1.38.6,1.9,1.05c.52.45.93.99,1.21,1.63.28.63.42,1.33.42,2.09,0,.64-.09,1.25-.26,1.81s-.43,1.07-.76,1.53-.74.86-1.22,1.2c-.48.34-1.03.6-1.64.8v.06c.75.07,1.43.25,2.04.54.61.29,1.14.67,1.57,1.14.44.47.77,1.01,1.01,1.64.24.63.36,1.32.36,2.06,0,.94-.17,1.81-.51,2.59-.34.78-.82,1.46-1.44,2.02-.62.57-1.35,1-2.2,1.32-.85.31-1.79.47-2.82.47h-6.24ZM153.73,113.94v7.92h2.9c.76,0,1.44-.1,2.06-.3.61-.2,1.14-.48,1.57-.86.44-.37.77-.82,1-1.35.23-.53.35-1.13.35-1.79,0-2.42-1.5-3.63-4.52-3.63h-3.36ZM153.73,123.74v8.75h3.85c1.65,0,2.92-.39,3.81-1.16.89-.77,1.33-1.87,1.33-3.29,0-2.86-1.95-4.3-5.84-4.3h-3.15Z"/>
      <path class="cls-1" d="M184.82,134.37l-3.36-6.4c-.33-.63-.65-1.16-.97-1.59-.31-.43-.63-.77-.97-1.02-.33-.25-.69-.44-1.07-.54-.38-.11-.8-.16-1.27-.16h-2.46v9.71h-2.07v-22.33h6.43c.84,0,1.65.12,2.44.37s1.48.62,2.09,1.11c.61.49,1.1,1.1,1.47,1.84.37.74.55,1.59.55,2.57,0,.79-.12,1.52-.36,2.18s-.58,1.25-1.02,1.77c-.44.51-.98.95-1.6,1.31-.63.36-1.34.63-2.13.8v.06c.3.12.58.29.83.48.25.2.49.44.72.72s.46.6.69.96.47.78.72,1.25l3.75,6.91h-2.43ZM174.73,113.94v8.83h3.71c.75,0,1.43-.11,2.06-.33.62-.22,1.15-.53,1.6-.93.44-.41.78-.89,1.03-1.46.24-.57.37-1.21.37-1.93,0-1.3-.42-2.32-1.25-3.06-.83-.74-2.04-1.11-3.62-1.11h-3.88Z"/>
      <path class="cls-1" d="M208.7,134.37l-2.46-6.6h-9.58l-2.4,6.6h-2.3l8.5-22.33h2.09l8.46,22.33h-2.3ZM201.89,115.95c-.07-.2-.15-.43-.23-.68-.08-.26-.14-.56-.2-.89h-.06c-.06.33-.13.63-.21.89-.08.26-.15.49-.23.68l-3.61,9.93h8.17l-3.64-9.93Z"/>
      <path class="cls-1" d="M218.69,132.49h13.06v1.88h-16.18v-.61l13.25-19.82h-12.19v-1.9h15.38v.53l-13.33,19.91Z"/>
      <path class="cls-1" d="M241.14,134.37h-2.07v-22.33h2.07v22.33Z"/>
      <path class="cls-1" d="M250.13,134.37v-22.33h2.07v20.44h8.97v1.88h-11.04Z"/>
      <path class="cls-1" d="M270.2,134.37h-2.07v-22.33h2.07v22.33Z"/>
      <path class="cls-1" d="M293.66,134.37l-2.46-6.6h-9.58l-2.4,6.6h-2.3l8.5-22.33h2.09l8.46,22.33h-2.3ZM286.85,115.95c-.07-.2-.15-.43-.23-.68-.08-.26-.14-.56-.2-.89h-.06c-.06.33-.13.63-.21.89-.08.26-.15.49-.23.68l-3.61,9.93h8.17l-3.64-9.93Z"/>
      <path class="cls-1" d="M317.96,134.37l-12.39-17.92c-.16-.23-.31-.46-.46-.7-.15-.24-.27-.47-.37-.7h-.08c.02.19.04.45.05.78s.02.75.02,1.25v17.3h-2.07v-22.33h2.29l12.19,17.7c.19.28.36.54.51.79.15.24.29.47.41.68h.08c-.04-.34-.07-.73-.09-1.15-.02-.43-.03-.9-.03-1.42v-16.6h2.09v22.33h-2.15Z"/>
      <path class="cls-1" d="M343.08,125.68v8.69h-2.07v-22.33h5.76c1.17,0,2.21.14,3.11.44.9.29,1.67.71,2.29,1.26.62.55,1.09,1.22,1.42,2.02.32.8.48,1.71.48,2.74s-.18,2-.54,2.87-.88,1.63-1.56,2.27c-.68.64-1.51,1.14-2.48,1.49s-2.08.54-3.32.54h-3.08ZM343.08,113.94v9.84h2.96c1.92,0,3.38-.45,4.38-1.34,1-.89,1.49-2.15,1.49-3.78,0-3.14-1.84-4.72-5.51-4.72h-3.32Z"/>
      <path class="cls-1" d="M377.56,125.4c0,6.24-2.74,9.36-8.22,9.36s-7.83-3-7.83-9.01v-13.7h2.07v13.51c0,2.45.49,4.28,1.48,5.5.99,1.21,2.51,1.82,4.58,1.82,3.9,0,5.85-2.37,5.85-7.1v-13.73h2.07v13.36Z"/>
      <path class="cls-1" d="M386.26,134.37v-22.33h5.87c3.82,0,6.7.92,8.66,2.75,1.95,1.83,2.93,4.54,2.93,8.12,0,1.72-.27,3.29-.82,4.7-.54,1.41-1.33,2.62-2.36,3.62-1.03,1-2.27,1.77-3.74,2.32-1.46.54-3.11.82-4.95.82h-5.59ZM388.33,113.94v18.54h3.42c1.54,0,2.91-.21,4.12-.62,1.21-.42,2.23-1.02,3.07-1.83.84-.8,1.48-1.8,1.92-2.98s.66-2.54.66-4.08c0-6.02-3.18-9.03-9.54-9.03h-3.66Z"/>
      <path class="cls-1" d="M413.44,134.37h-2.07v-22.33h2.07v22.33Z"/>
      <path class="cls-1" d="M442.19,134.37v-15.41c0-.79.06-2.06.19-3.81h-.06c-.15.47-.28.87-.4,1.21-.12.34-.23.62-.33.84l-7.79,17.17h-.89l-7.8-17.06c-.23-.52-.46-1.25-.7-2.2h-.06c.04.48.07,1.02.09,1.63s.02,1.29.02,2.04v15.58h-2.02v-22.33h2.44l7.58,16.78c.16.35.31.71.46,1.08.15.37.29.76.41,1.18h.09c.14-.42.28-.79.4-1.14.12-.34.27-.71.44-1.11l7.64-16.8h2.32v22.33h-2.04Z"/>
    </g>
  </g>
</svg>