<?xml version="1.0" encoding="UTF-8"?>
<svg id="Camada_2" data-name="Camada 2" xmlns="http://www.w3.org/2000/svg" viewBox="0 0 995.25 325.01">
  <defs>
    <style>
      .cls-1 {
        fill: #000;
        stroke-width: 0px;
      }
    </style>
  </defs>
  <g id="Camada_1-2" data-name="Camada 1">
    <g>
      <path class="cls-1" d="M122.99,0h-7.9C51.63,0,0,51.63,0,115.09v94.81c0,63.47,51.63,115.1,115.09,115.1h7.9c63.46,0,115.09-51.63,115.09-115.1v-94.81C238.09,51.63,186.46,0,122.99,0ZM115.09,4.55h7.9c60.95,0,110.54,49.59,110.54,110.54v75.76c-8.15-2.72-16.83-5.17-26.01-7.28-1.11-.27-2.24-.51-3.35-.76.02.12.03.25.05.36,0,.02.01.03.01.04.01.16.05.29.06.43.4,2.69.76,5.42,1.1,8.13.4,3.14.76,6.28,1.08,9.41.31,3.09.65,6.2.35,9.29-.56,5.45-4.1,9.58-8.33,12.77-4.43,3.35-9.36,6.05-14.42,8.37-10.53,4.78-21.89,7.58-33.26,9.55-12.5,2.15-25.22,3.47-37.94,3.68-1.24.03-2.49.04-3.76.04-22.85,0-50.01-3.8-68.8-16.57-.02-.01-.03-.02-.05-.02-1.23-.85-1.99-1.53-2.95-2.33-.01-.02-.02-.02-.03-.03-.16-.13-.32-.25-.47-.38-.19-.13-.35-.3-.54-.45-.01-.03-.05-.04-.06-.05-.02-.02-.04-.03-.05-.05-.01-.01-.01-.02-.02-.02h0s-.04-.04-.05-.06h0s-.06-.07-.06-.07l-.51-.53c-4.46-4.11-4.98-11.34-4.43-17.19.74-7.83,1.68-15.61,2.72-23.41.04-.31.1-.63.13-.95t-.02.01c-10.4,2.28-20.23,4.97-29.36,8v-75.67C4.55,54.14,54.14,4.55,115.09,4.55Z"/>
      <path class="cls-1" d="M47.39,123.68c.34.92.77,1.83,1.26,2.71,2.51,4.56,6.57,7.55,11.28,9.57,4.55,1.96,9.65,3.24,13.53,6.47,1.69,1.4,3.01,3.08,3.76,5.14.79,2.17,1.27,4.52,2.59,6.45,3.11,4.48,9.34,4.43,14.05,2.98,5.16-1.6,9.44-4.93,13.67-8.19,4.35-3.35,8.82-6.43,14.21-7.85,4.86-1.3,9.98-1.25,14.71.54,4.31,1.62,8.06,4.73,10.25,8.8,2.18,3.99,2.77,8.63,3.01,13.11.17,3,.19,5.99.33,8.99,0,.16,0,.3.02.45.03.76.07,1.53.15,2.29h0s0,0,0,0c0,.14.02.27.03.41.01.16.02.32.04.49.06.63.13,1.24.21,1.86.04.29.09.59.13.88.01.09.04.18.05.27.14.91.31,1.81.52,2.7.09.39.19.79.3,1.17.04.16.09.32.14.47.11.39.24.78.37,1.16.04.13.09.25.13.38.37,1.02.8,2.01,1.3,2.96.06.12.13.23.19.35.2.36.41.71.63,1.06.08.13.17.26.25.39.27.4.55.79.85,1.18.03.04.06.09.09.13.96,1.21,2.11,2.25,3.42,3.04.03.02.05.04.08.05.04.02.07.04.11.06.31.18.63.35.96.5.11.05.23.1.35.15.38.16.76.31,1.16.43,1.82.55,3.74.63,5.63.45.77-.07,1.54-.18,2.29-.33.14-.03.28-.07.43-.1.5-.1,1.01-.22,1.52-.35.26-.07.53-.14.79-.22.42-.12.85-.24,1.27-.38.26-.08.51-.17.77-.26.46-.16.92-.33,1.37-.52.21-.08.41-.16.62-.25,1.23-.53,2.43-1.13,3.55-1.83,0,0,0,0,0,0,0,0,.01,0,.02-.01,1.03-.65,2-1.38,2.88-2.2.06-.06.12-.12.18-.19.1-.09.2-.18.29-.28.06-.06.11-.13.17-.19.16-.17.31-.34.46-.52.13-.16.26-.32.38-.48.12-.15.24-.31.35-.47.13-.19.26-.38.38-.58.09-.14.18-.29.27-.43.13-.22.24-.44.36-.66.07-.14.14-.27.21-.41.11-.24.22-.48.32-.72.05-.13.11-.26.16-.39.1-.26.19-.53.28-.8.04-.12.08-.23.12-.35.1-.34.19-.68.28-1.02.01-.05.03-.1.04-.15.09-.4.18-.81.25-1.22.04-.18.06-.36.08-.54.01-.1.03-.2.04-.3,0,0,0-.02,0-.03h0c.04-.29.06-.57.11-.85.01-.07.02-.14.02-.21.1-.94.11-1.86.1-2.79-.1-5.54-1.22-11.09-1.98-16.57-.85-5.99-1.79-11.99-2.5-18-.29-2.62-.41-5.35.81-7.77,1.01-2,2.52-3.66,3.93-5.38.91-1.1,1.76-2.21,2.52-3.42.33.76.64,1.49.94,2.24,1.17,2.87,2.17,5.83,3.02,8.82,3.57,12.15,6.2,24.65,8.39,37.11.6,3.36,1.12,6.73,1.63,10.12,1.11.25,2.24.49,3.35.76-.05-.35-.09-.68-.15-1.03-1.91-13.03-4.47-25.95-7.67-38.71-1.55-6.26-3.2-12.52-5.68-18.48-.61-1.51-1.3-3.05-2.12-4.53.53-1.8.73-3.74.53-5.64-1.05-10.86-10.7-17-19.97-20.65-10.44-4.1-21.66-5.91-32.83-6.76-5.66-.44-11.33-.63-16.99-.74-5.15-.09-10.32-.07-15.45.32-10.09.77-20.69,3-29.06,9.03-3.91,2.82-7.38,6.95-6.93,12.09.43,4.92,3.71,9.08,7.88,11.5,4.69,2.73,10.27,3.63,15.56,4.42,5.24.79,10.55,1.26,15.87,1.39,20.09,2.37,40.62-3.46,60.39-6.73,3.21-.51,6.44-1.03,9.66-1.35,2.75-.26,4.98.07,6.86,2.2.33.38.64.78.93,1.21-.19.41-.37.83-.61,1.24-2.17,3.72-5.68,6.45-7.35,10.51-.96,2.38-1.05,4.95-.8,7.47.28,2.9.77,5.77,1.15,8.64.78,5.6,1.56,11.18,2.34,16.77.54,3.9,1.32,7.99,1.06,11.97-.01.1-.01.17-.01.26-.04.35-.09.69-.12,1.03,0,0,0,0,0,0,0,0,0,0,0,0-.03.27-.07.52-.11.78,0,.03,0,.07-.02.1h0c-.01.06-.01.1-.03.15v.02c-.02.08-.04.16-.05.24-.08.38-.16.76-.27,1.14-.05.17-.1.33-.15.5-.08.27-.18.53-.28.79-.11.28-.23.56-.36.84-.12.25-.24.5-.38.74-.09.16-.18.33-.28.49-.22.35-.47.69-.74,1.01-.04.05-.07.1-.12.15-.04.04-.08.08-.11.12-.28.32-.58.62-.89.91-.15.14-.31.28-.47.41-.2.16-.4.32-.6.47-.26.19-.52.38-.79.56-.17.11-.34.22-.52.32-.63.38-1.27.74-1.95,1.06-2.03.96-4.22,1.69-6.41,2.2-2.35.57-4.86.82-7.2.12-.38-.11-.74-.26-1.09-.43-.07-.03-.15-.07-.22-.1-.33-.16-.64-.35-.94-.55-.07-.05-.14-.1-.2-.15-.26-.19-.51-.38-.75-.59-.05-.05-.11-.09-.16-.14-.26-.24-.5-.5-.74-.76-.07-.08-.15-.17-.22-.26-.22-.27-.44-.54-.65-.83-.06-.08-.11-.16-.16-.24-.17-.24-.32-.49-.48-.74-.06-.09-.12-.19-.17-.28-.17-.31-.34-.62-.5-.93-.05-.1-.1-.2-.15-.3-.15-.32-.3-.64-.43-.96,0-.02-.02-.04-.02-.06-.3-.74-.55-1.49-.78-2.21-.09-.28-.16-.57-.24-.86-.09-.32-.17-.64-.24-.96-.13-.57-.25-1.14-.35-1.72-.05-.26-.09-.52-.13-.78-.09-.62-.18-1.25-.25-1.88,0-.03,0-.06-.01-.09-.03-.22-.05-.45-.07-.68,0-.07,0-.14,0-.21-.1-.75-.15-1.48-.18-2.23l-.03-.43c-.3-5.62-.04-11.33-1.16-16.84-.89-4.38-2.77-8.52-5.87-11.77-3.06-3.2-7.11-5.47-11.39-6.55-4.81-1.21-9.91-.94-14.63.44-5.02,1.46-9.37,4.21-13.47,7.36-3.99,3.06-7.97,6.43-12.74,8.16-3.79,1.39-9.62,2.23-11.9-2.03-1.01-1.89-1.38-4.06-2.23-6.01-.86-1.99-2.23-3.75-3.87-5.16-3.63-3.14-8.16-4.72-12.55-6.42-4.41-1.71-8.62-3.88-11.27-7.94-2.37-3.63-3.42-8.09-2.55-12.37.82-4.14,3.1-8,6.52-10.53.7-.52,1.05-1.4.58-2.21-.42-.69-1.51-1.11-2.21-.59-5.86,4.34-8.86,11.3-8.28,18.19.15,1.76.52,3.5,1.15,5.21ZM120.59,122.41c-3.08.16-6.18.25-9.27.2-1.45-.17-3.55-.34-4.98-.59-1.05-.19-4.09-.84-5.13-1.08l-3.84-1.27c-2.69-.82-5.15-2.15-6.59-4.68-2.24-4.02.77-8.33,4.34-10.26,2.14-1.15,4.55-1.72,6.94-2.11,2.79-.47,5.58-.74,8.37-1,5.57-.49,11.18-.65,16.78-.52,2.86.03,5.71.15,8.54.42,2.39.23,4.91.64,7.09,1.72,3.78,1.85,6.46,5.74,4.65,9.95-1.89,4.45-6.65,6.31-11.06,7.26-5.19,1.14-10.56,1.67-15.84,1.96ZM183.32,114.41c-1.59-.12-3.19.13-4.76.32-1.64.19-3.27.41-4.9.65-3.24.5-6.46,1.04-9.66,1.64-6.32,1.17-12.59,2.49-18.91,3.59.23-.16.47-.31.72-.49,3.88-2.79,6.66-7.77,5.13-12.61-1.58-4.89-6.37-7.69-11.18-8.68-2.66-.52-5.42-.7-8.14-.83-3.06-.15-6.12-.22-9.19-.2-6.11.06-12.24.48-18.32,1.28-5.06.67-10.56,1.68-14.18,5.62-3.45,3.76-4.24,9.13-.99,13.28.89,1.11,1.92,2.01,3.04,2.73-1.42-.27-2.84-.59-4.25-.93-4.43-1.09-9.01-2.97-11.55-6.97-1.1-1.74-1.77-3.77-1.6-5.83.16-2.04,1.25-3.89,2.62-5.36,3.1-3.36,7.54-5.58,11.75-7.19,4.48-1.74,9.22-2.79,13.97-3.37,9.86-1.25,19.94-.93,29.82-.46,10.56.47,21.15,1.57,31.34,4.48,4.85,1.38,9.67,3.11,14.05,5.57,3.97,2.22,7.58,5.2,9.66,9.3,1.12,2.26,1.73,4.78,1.58,7.26-1.56-1.56-3.49-2.65-6.02-2.81Z"/>
      <path class="cls-1" d="M37.74,226.21s.02.02.04.03h0c.8.68,1.52,1.3,2.59,2.03-.03-.02-.05-.04-.08-.06.03.02.05.03.08.05-.11-.08-.21-.16-.32-.24-.83-.63-1.65-1.28-2.45-1.94-.06-.04-.11-.08-.17-.14.03.03.06.05.09.07-.03-.02-.06-.05-.09-.07.11.09.21.18.31.26Z"/>
      <path class="cls-1" d="M36.32,225.03l-.07-.06h0s.01.02.02.03.03.02.05.03Z"/>
    </g>
    <g>
      <g>
        <path class="cls-1" d="M400.72,81.07l-1.98,10.3h1.79l.32-.82c1.39-3.64,2.97-7.78,8.14-7.78h8.15v42.62c0,2.37-1.63,3.22-3.16,3.22h-.96v1.7h15v-1.7h-.96c-1.53,0-3.17-.85-3.17-3.22v-42.62h8.15c5.17,0,6.75,4.13,8.14,7.78l.32.82h1.79l-1.98-10.3h-39.59Z"/>
        <path class="cls-1" d="M479.25,125.39v-21.95c0-8.08-5.24-9.29-8.36-9.29-6.48,0-14.16,4.33-17.65,16.15v-29.32l-10.02,1.52v1.64h.96c1.53,0,3.17.85,3.17,3.22v38.03c0,2.37-1.64,3.22-3.17,3.22h-.96v1.7h14.15v-1.7h-.96c-1.46,0-3.17-.84-3.17-3.22v-4.84c1.98-21.97,13.53-22.6,14.84-22.6,3.44,0,5.19,2.46,5.19,7.32v20.12c0,3.06-2.57,3.22-3.09,3.22h-1.04v1.7h14.22v-1.7h-1.04c-.52,0-3.09-.15-3.09-3.22Z"/>
        <path class="cls-1" d="M520.94,116.03l-.15.57c-2.59,9.88-9.88,11.36-14,11.36-8.51,0-13.6-6.17-13.6-16.5,0-.55,0-1.15.04-1.72h29.24v-.49c0-11.12-8.58-15.08-16.61-15.08-11.2,0-19.02,7.57-19.02,18.4s7.79,18.47,18.95,18.47c8.87,0,14.63-4.8,16.68-13.87l.09-.39-1.6-.75ZM516.15,108.03h-22.74c1.01-7.63,5.37-12.17,11.74-12.17s10.38,4.54,10.99,12.17Z"/>
      </g>
      <path class="cls-1" d="M354.95,74.7h-65.08v2.31h1.26c4.62,0,9.87,3.15,9.87,11.97v127.02c0,8.82-5.25,11.97-9.87,11.97h-1.26v2.31h44.51v-2.31c-9.66,0-17.85,1.05-17.85-11.97v-55.64c7.14.84,14.07,1.26,21,1.26,30.02,0,56.48-9.45,56.48-44.51,0-26.87-15.75-42.41-39.05-42.41ZM330.17,158.89c-4.41,0-9.03-.21-13.65-.84v-81.04h23.93c22.04,0,36.95,14.91,36.95,40.1,0,29.81-20.37,41.78-47.24,41.78Z"/>
      <path class="cls-1" d="M495.28,214.89v-74.65l-25.29.55v1.95h1.51c4.54,0,9.94,2.48,9.94,10.08v9.55c-4.54,51.64-29.83,62.6-42.58,62.6-11.02,0-15.78-8.67-15.78-21.22v-62.74l-25.07-.22v1.95h1.3c4.76,0,10.16,2.48,10.16,10.08v55.88c0,17.15,9.29,23.87,21.62,23.87,17.08,0,42.37-11.85,50.36-53.94v51.99l25.29-3.71v-1.95h-1.51c-4.54,0-9.94-2.65-9.94-10.08Z"/>
      <path class="cls-1" d="M605.2,211.58V74.7l-24.35,4.41v2.31h1.26c4.41,0,9.87,3.15,9.87,11.97v60.46c-5.25-22.25-18.48-36.95-36.95-36.95-23.09,0-38.42,23.09-38.42,57.73s15.33,57.95,38.42,57.95c18.47,0,31.7-14.7,36.95-36.95v34.64l24.35-4.41v-2.31h-1.26c-4.41,0-9.87-3.15-9.87-11.97ZM561.12,225.86c-18.48,0-30.02-20.57-30.02-51.23s11.55-51.02,30.02-51.02,30.86,20.36,30.86,51.02-12.6,51.23-30.86,51.23Z"/>
      <path class="cls-1" d="M716.47,211.58V74.7l-24.35,4.41v2.31h1.26c4.41,0,9.87,3.15,9.87,11.97v60.46c-5.25-22.25-18.48-36.95-36.95-36.95-23.09,0-38.42,23.09-38.42,57.73s15.33,57.95,38.42,57.95c18.47,0,31.7-14.7,36.95-36.95v34.64l24.35-4.41v-2.31h-1.26c-4.41,0-9.87-3.15-9.87-11.97ZM672.39,225.86c-18.48,0-30.02-20.57-30.02-51.23s11.55-51.02,30.02-51.02,30.86,20.36,30.86,51.02-12.6,51.23-30.86,51.23Z"/>
      <path class="cls-1" d="M760.35,215.99v-96.79l-24.35,4.41v2.31h1.26c4.62,0,9.87,2.94,9.87,11.97v78.1c0,8.82-5.25,11.97-9.87,11.97h-1.26v2.31h35.48v-2.31h-1.26c-4.41,0-9.87-3.15-9.87-11.97Z"/>
      <path class="cls-1" d="M750.9,103.67c6.3,0,11.13-4.83,11.13-11.13s-4.83-11.13-11.13-11.13-11.13,5.04-11.13,11.13,4.83,11.13,11.13,11.13Z"/>
      <path class="cls-1" d="M873.93,215.99v-70.75c0-20.57-9.24-28.34-21.21-28.34-16.37,0-41.15,14.07-48.92,64.03v-61.72l-24.35,4.41v2.31h1.26c4.62,0,9.87,2.94,9.87,11.97v78.1c0,8.82-5.25,11.97-9.87,11.97h-1.26v2.31h35.48v-2.31h-1.26c-4.41,0-9.87-3.15-9.87-11.97v-15.75c4.62-61.3,29.18-74.32,41.36-74.32,10.92,0,15.33,10.08,15.33,25.19v64.87c0,8.82-5.25,11.97-9.66,11.97h-1.47v2.31h35.69v-2.31h-1.47c-4.41,0-9.66-3.15-9.66-11.97Z"/>
      <path class="cls-1" d="M965.18,218.12c-21.42,0-31.72,22.66-51.29,22.66-8.24,0-11.53-3.91-11.53-9.89,0-14.62,19.77-23.69,31.51-25.54,2.68.41,5.36.41,7.83.41,28.01,0,46.76-18.13,46.76-43.25,0-15.24-7.21-28.22-18.95-35.84,3.91-3.5,12.77-8.86,20.18-8.86,2.06,0,3.91.41,5.56,1.24l-.21-16.89c-10.3,1.44-20.8,12.56-27.81,23.27-7.21-3.91-15.65-6.38-25.54-6.38-27.81,0-46.55,18.33-46.55,43.46,0,21.01,13.39,37.49,33.98,42.02-12.77,3.5-31.51,12.77-31.51,30.07,0,9.68,5.56,19.16,18.74,19.16,22.86,0,27.6-29.45,51.08-29.45,11.33,0,21.63,7,21.63,23.48,0,12.56-6.18,23.89-21.21,23.89-13.6,0-20.19-9.68-23.69-25.13l-8.65,13.39c4.32,9.47,17.92,16.07,30.28,16.07,18.13,0,25.54-14.01,25.54-29.25,0-19.57-12.56-28.63-26.16-28.63ZM909.36,162.5c0-27.81,12.98-41.19,32.34-41.19s32.54,13.39,32.54,41.19-12.98,41.19-32.54,41.19-32.34-13.59-32.34-41.19Z"/>
    </g>
    <g>
      <g>
        <path class="cls-1" d="M286.1,289.7h1.32l5.24-10.99h14.99l5.35,10.99h1.32l-14.13-29.52-14.09,29.52ZM293.18,277.59l6.93-14.65,7.08,14.65h-14.01Z"/>
        <path class="cls-1" d="M315.1,290.19h-2.41l-5.35-10.99h-14.37l-5.24,10.99h-2.41l14.87-31.16,14.91,31.16ZM313.31,289.21h.22l-13.34-27.88-13.31,27.88h.22l5.24-10.99h15.62l5.35,10.99ZM307.98,278.08h-15.58l7.71-16.29,7.87,16.29ZM293.96,277.1h12.45l-6.29-13.01-6.16,13.01Z"/>
      </g>
      <g>
        <polygon class="cls-1" points="338.8 260.87 324.6 260.87 324.6 261.98 331.12 261.98 331.12 289.7 332.36 289.7 332.36 261.98 338.8 261.98 338.8 260.87"/>
        <path class="cls-1" d="M332.85,290.19h-2.23v-27.72h-6.52v-2.1h15.19v2.1h-6.44v27.72ZM331.61,289.21h.25v-27.72h6.44v-.13h-13.21v.13h6.52v27.72Z"/>
      </g>
      <g>
        <path class="cls-1" d="M337.94,289.7h1.32l5.24-10.99h14.99l5.35,10.99h1.32l-14.13-29.52-14.09,29.52ZM345.02,277.59l6.93-14.65,7.08,14.65h-14.01Z"/>
        <path class="cls-1" d="M366.94,290.19h-2.41l-5.35-10.99h-14.37l-5.24,10.99h-2.41l14.87-31.16,14.91,31.16ZM365.14,289.21h.22l-13.34-27.88-13.31,27.88h.22l5.24-10.99h15.62l5.35,10.99ZM359.82,278.08h-15.58l7.71-16.29,7.87,16.29ZM345.8,277.1h12.45l-6.29-13.01-6.16,13.01Z"/>
      </g>
      <g>
        <path class="cls-1" d="M382.09,276.05c-1.28-1.13-3.08-2.38-5.39-3.77-1.88-1.1-3.22-2.12-4.01-3.06-.79-.94-1.19-2.06-1.19-3.36s.43-2.4,1.28-3.19c.85-.79,1.91-1.19,3.17-1.19s2.31.31,3.31.92,1.8,1.46,2.37,2.54v-1.96c-1.36-1.74-3.19-2.61-5.5-2.61-1.71,0-3.11.49-4.22,1.46-1.11.97-1.66,2.33-1.66,4.08,0,1.31.33,2.46.98,3.46.5.72,1.09,1.35,1.77,1.88.68.54,1.57,1.15,2.67,1.84l1.21.77c1.76,1.1,3.1,2.06,4.03,2.86.93.81,1.59,1.65,2,2.52.4.87.6,1.91.6,3.11,0,1.33-.31,2.51-.94,3.54-.63,1.03-1.48,1.82-2.54,2.38-1.07.56-2.23.85-3.48.85-1.81,0-3.36-.44-4.65-1.31-1.29-.87-2.28-2.08-2.96-3.61v2.08c1.73,2.64,4.17,3.96,7.31,3.96,1.61,0,3.05-.33,4.33-.98s2.29-1.58,3.01-2.79c.73-1.2,1.09-2.6,1.09-4.19,0-1.26-.21-2.4-.62-3.42-.41-1.02-1.07-1.96-1.98-2.81Z"/>
        <path class="cls-1" d="M376.25,290.73c-3.3,0-5.9-1.41-7.72-4.18l-.08-.12v-4.57l.95,2.14c.64,1.44,1.57,2.59,2.78,3.4,1.21.81,2.68,1.22,4.38,1.22,1.17,0,2.26-.27,3.25-.79.98-.52,1.77-1.26,2.35-2.2.58-.94.87-2.04.87-3.28,0-1.13-.19-2.1-.56-2.91-.37-.8-1-1.59-1.87-2.35-.9-.78-2.24-1.73-3.97-2.82l-1.21-.77c-1.11-.7-2.02-1.33-2.72-1.87-.72-.57-1.34-1.24-1.87-1.99-.71-1.09-1.07-2.34-1.07-3.74,0-1.88.61-3.38,1.83-4.45,1.19-1.05,2.72-1.58,4.55-1.58,2.46,0,4.44.94,5.89,2.81l.1.13v4.09l-.93-1.73c-.53-.99-1.27-1.78-2.2-2.35-.92-.56-1.95-.85-3.06-.85s-2.06.35-2.83,1.06c-.76.7-1.12,1.63-1.12,2.83s.35,2.19,1.07,3.04c.75.89,2.06,1.88,3.88,2.95,2.33,1.39,4.17,2.68,5.46,3.82h.01c.95.9,1.66,1.9,2.1,2.99.44,1.08.66,2.29.66,3.61,0,1.67-.39,3.17-1.16,4.45-.77,1.28-1.85,2.28-3.21,2.97-1.35.69-2.88,1.03-4.56,1.03ZM369.43,286.13c1.64,2.43,3.87,3.61,6.81,3.61,1.52,0,2.9-.31,4.11-.93,1.19-.61,2.14-1.48,2.82-2.6.68-1.12,1.02-2.44,1.02-3.93,0-1.19-.2-2.28-.59-3.24-.38-.95-1.01-1.83-1.85-2.63-1.25-1.1-3.04-2.35-5.31-3.71-1.92-1.12-3.31-2.19-4.14-3.16-.86-1.02-1.3-2.26-1.3-3.68s.48-2.66,1.44-3.55c.94-.88,2.12-1.32,3.5-1.32,1.29,0,2.49.33,3.57,1,.61.37,1.15.83,1.62,1.37v-.2c-1.26-1.54-2.9-2.29-5.01-2.29-1.58,0-2.89.45-3.89,1.34-1,.88-1.49,2.1-1.49,3.7,0,1.2.3,2.28.9,3.19.46.66,1.03,1.26,1.67,1.77.66.53,1.55,1.14,2.63,1.81l1.21.77c1.77,1.11,3.15,2.09,4.09,2.91.98.85,1.69,1.75,2.12,2.68.43.93.65,2.05.65,3.32,0,1.42-.34,2.7-1.01,3.79-.67,1.1-1.59,1.96-2.73,2.56-1.13.6-2.38.9-3.72.9-1.9,0-3.56-.47-4.93-1.39-.85-.58-1.58-1.29-2.19-2.14v.05Z"/>
      </g>
      <g>
        <polygon class="cls-1" points="384.8 261.98 391.32 261.98 391.32 289.7 392.56 289.7 392.56 261.98 399 261.98 399 260.87 384.8 260.87 384.8 261.98"/>
        <path class="cls-1" d="M393.06,290.19h-2.23v-27.72h-6.52v-2.1h15.19v2.1h-6.44v27.72ZM391.81,289.21h.25v-27.72h6.44v-.13h-13.21v.13h6.52v27.72Z"/>
      </g>
      <g>
        <polygon class="cls-1" points="402.77 289.7 412.91 289.7 412.91 288.58 404.01 288.58 404.01 278.78 411.44 278.78 411.44 277.67 404.01 277.67 404.01 261.98 412.91 261.98 412.91 260.87 402.77 260.87 402.77 289.7"/>
        <path class="cls-1" d="M413.4,290.19h-11.12v-29.82h11.12v2.1h-8.89v14.7h7.42v2.1h-7.42v8.81h8.89v2.1ZM403.27,289.21h9.15v-.13h-8.89v-10.79h7.42v-.13h-7.42v-16.67h8.89v-.13h-9.15v27.84Z"/>
      </g>
      <g>
        <path class="cls-1" d="M446.02,262.14c-2.24-1.36-4.68-2.04-7.35-2.04s-5.09.69-7.35,2.06c-2.26,1.37-4.06,3.22-5.39,5.54-1.33,2.32-2,4.81-2,7.48s.66,5.21,1.98,7.55c1.32,2.34,3.11,4.22,5.37,5.63s4.71,2.11,7.35,2.11,5.12-.69,7.37-2.06c2.25-1.37,4.03-3.23,5.35-5.57s1.98-4.9,1.98-7.67-.66-5.2-1.98-7.52-3.1-4.16-5.33-5.52ZM450.26,282.3c-1.22,2.17-2.86,3.88-4.92,5.15-2.06,1.27-4.29,1.9-6.71,1.9s-4.65-.64-6.71-1.9c-2.06-1.27-3.7-2.99-4.92-5.15-1.22-2.17-1.83-4.52-1.83-7.05s.61-4.84,1.83-7c1.22-2.15,2.86-3.86,4.92-5.13,2.06-1.27,4.31-1.9,6.74-1.9s4.65.63,6.71,1.9c2.06,1.27,3.69,2.98,4.9,5.13,1.21,2.15,1.81,4.49,1.81,7s-.61,4.89-1.83,7.05Z"/>
        <path class="cls-1" d="M438.64,290.96c-2.72,0-5.28-.74-7.61-2.19-2.32-1.45-4.18-3.4-5.54-5.81-1.36-2.41-2.04-5.03-2.04-7.8s.69-5.34,2.06-7.72c1.37-2.38,3.24-4.3,5.56-5.71,2.33-1.41,4.89-2.13,7.6-2.13s5.3.71,7.6,2.11h0c2.3,1.4,4.15,3.31,5.5,5.7,1.36,2.38,2.04,5,2.04,7.76s-.69,5.5-2.04,7.91c-1.35,2.41-3.21,4.34-5.52,5.75-2.32,1.41-4.88,2.13-7.62,2.13ZM438.68,260.59c-2.53,0-4.92.67-7.09,1.99-2.18,1.32-3.93,3.12-5.21,5.36-1.28,2.23-1.93,4.66-1.93,7.23s.64,5.05,1.91,7.31c1.27,2.26,3.02,4.1,5.2,5.45,2.17,1.35,4.56,2.04,7.09,2.04s4.95-.67,7.11-1.98c2.16-1.32,3.91-3.14,5.18-5.39,1.27-2.26,1.91-4.76,1.91-7.43s-.64-5.04-1.91-7.27c-1.27-2.23-3-4.03-5.16-5.34-2.15-1.3-4.53-1.97-7.09-1.97ZM438.64,289.85c-2.49,0-4.84-.67-6.97-1.98-2.12-1.31-3.83-3.1-5.09-5.33-1.25-2.23-1.89-4.69-1.89-7.3s.64-5.02,1.89-7.24c1.25-2.22,2.97-4,5.09-5.31,2.13-1.31,4.48-1.98,7-1.98s4.84.67,6.97,1.98c2.12,1.31,3.83,3.09,5.07,5.31,1.24,2.22,1.87,4.65,1.87,7.24s-.64,5.07-1.89,7.3h0c-1.25,2.23-2.97,4.02-5.09,5.33-2.13,1.31-4.47,1.98-6.97,1.98ZM438.68,261.71c-2.33,0-4.51.62-6.48,1.83-1.98,1.22-3.58,2.89-4.75,4.95-1.17,2.07-1.76,4.34-1.76,6.75s.59,4.73,1.76,6.81c1.17,2.08,2.77,3.75,4.75,4.97,1.97,1.21,4.14,1.83,6.45,1.83s4.47-.62,6.45-1.83c1.98-1.22,3.57-2.89,4.74-4.97,1.17-2.08,1.76-4.37,1.76-6.81s-.59-4.69-1.75-6.76c-1.16-2.07-2.75-3.73-4.73-4.95-1.97-1.21-4.14-1.83-6.45-1.83Z"/>
      </g>
      <g>
        <polygon class="cls-1" points="458.45 289.7 459.7 289.7 459.7 278.7 467.04 278.7 467.04 277.59 459.7 277.59 459.7 261.98 468.51 261.98 468.51 260.87 458.45 260.87 458.45 289.7"/>
        <path class="cls-1" d="M460.19,290.19h-2.23v-29.82h11.05v2.1h-8.82v14.62h7.35v2.1h-7.35v10.99ZM458.95,289.21h.25v-10.99h7.35v-.13h-7.35v-16.6h8.82v-.13h-9.07v27.84Z"/>
      </g>
      <g>
        <path class="cls-1" d="M484.64,271.36c.85-.33,1.58-.98,2.19-1.94s.9-1.97.9-3.02c0-1.82-.47-3.2-1.39-4.13-.93-.94-2.39-1.4-4.37-1.4h-1.21v28.83h1.21c1.76,0,3.36-.4,4.8-1.21,1.44-.81,2.58-1.95,3.41-3.42.83-1.47,1.24-3.17,1.24-5.09,0-2.41-.59-4.36-1.77-5.84s-2.85-2.41-5.01-2.77ZM481.96,261.94h.3c1.48,0,2.57.37,3.26,1.11.69.74,1.04,1.84,1.04,3.31,0,1.31-.42,2.41-1.24,3.31-.83.9-1.85,1.35-3.05,1.35h-.3v-9.07ZM489.16,284.47c-.7,1.31-1.66,2.33-2.86,3.06s-2.55,1.1-4.03,1.1h-.3v-16.57h.3c2.56,0,4.53.67,5.9,2.02,1.37,1.35,2.05,3.34,2.05,5.98,0,1.64-.35,3.11-1.06,4.42Z"/>
        <path class="cls-1" d="M481.96,290.19h-1.7v-29.82h1.7c2.11,0,3.7.52,4.72,1.55,1.02,1.03,1.54,2.54,1.54,4.48,0,1.14-.33,2.24-.98,3.28-.38.6-.8,1.09-1.28,1.47,1.69.49,3.06,1.39,4.07,2.67,1.25,1.57,1.88,3.64,1.88,6.15,0,2-.44,3.79-1.31,5.34-.87,1.55-2.08,2.76-3.6,3.61-1.51.85-3.21,1.27-5.04,1.27ZM481.25,289.21h.71c1.67,0,3.2-.39,4.56-1.15,1.36-.76,2.44-1.85,3.22-3.23.78-1.39,1.18-3.02,1.18-4.85,0-2.28-.56-4.14-1.66-5.54-.57-.71-1.26-1.29-2.08-1.73.49.28.93.62,1.33,1.01,1.46,1.44,2.2,3.57,2.2,6.33,0,1.71-.37,3.28-1.11,4.65h0c-.74,1.38-1.77,2.47-3.04,3.25-1.28.77-2.72,1.17-4.29,1.17h-.8v-17.56h.8c.22,0,.43,0,.63.01l-.12-.02.27-.11c-.26.04-.52.06-.79.06h-.8v-10.06h.8c1.62,0,2.84.43,3.62,1.27.78.83,1.17,2.06,1.17,3.64,0,1.43-.46,2.65-1.37,3.64-.23.25-.48.47-.73.66.55-.33,1.04-.83,1.46-1.5.55-.88.83-1.81.83-2.75,0-1.67-.42-2.95-1.25-3.78-.83-.83-2.18-1.26-4.02-1.26h-.71v27.84ZM482.46,272.55v15.58c1.31-.03,2.51-.37,3.58-1.02,1.12-.68,2.03-1.64,2.68-2.87h0c.66-1.23,1-2.64,1-4.19,0-2.49-.64-4.38-1.91-5.63-1.23-1.21-3.03-1.84-5.36-1.88ZM482.46,262.44v8.08c.98-.04,1.8-.43,2.5-1.18.75-.81,1.11-1.78,1.11-2.97,0-1.33-.3-2.32-.9-2.97-.56-.6-1.47-.93-2.7-.96Z"/>
      </g>
      <g>
        <path class="cls-1" d="M497.86,279.24c1.63,0,3.13-.4,4.48-1.21s2.43-1.92,3.22-3.33c.79-1.41,1.19-2.96,1.19-4.65,0-2.95-.8-5.22-2.39-6.8s-3.86-2.38-6.8-2.38h-1.62v28.83h1.21v-9.15l8.55,9.15h1.62l-9.72-10.46h.26ZM497.14,261.98h.49c2.54,0,4.49.7,5.86,2.11,1.37,1.41,2.05,3.41,2.05,6,0,1.49-.34,2.84-1.02,4.06-.68,1.22-1.61,2.18-2.79,2.9-1.18.72-2.49,1.08-3.92,1.08h-.68v-16.15Z"/>
        <path class="cls-1" d="M508.45,290.19h-2.97l-7.84-8.39v8.39h-2.19v-29.82h2.11c3.06,0,5.47.85,7.15,2.53,1.68,1.68,2.54,4.09,2.54,7.15,0,1.77-.42,3.42-1.25,4.89-.83,1.48-1.97,2.66-3.4,3.51-1.19.71-2.5,1.13-3.9,1.25l9.75,10.49ZM505.91,289.21h.27l-9.72-10.46h1.4c1.53,0,2.96-.38,4.23-1.14,1.28-.76,2.3-1.82,3.04-3.14.75-1.33,1.12-2.81,1.12-4.41,0-2.8-.76-4.97-2.25-6.45-1.49-1.49-3.66-2.24-6.45-2.24h-1.13v27.84h.22v-9.91l9.26,9.91ZM497.82,278.62h-1.17v-17.13h.98c2.66,0,4.75.76,6.21,2.26,1.46,1.5,2.19,3.63,2.19,6.34,0,1.56-.36,3.01-1.08,4.3-.72,1.29-1.71,2.33-2.96,3.08-1.25.76-2.66,1.15-4.17,1.15ZM497.64,277.63h.18c1.33,0,2.56-.34,3.66-1,1.1-.67,1.98-1.58,2.61-2.72.63-1.14.95-2.42.95-3.82,0-2.44-.64-4.34-1.91-5.65-1.27-1.3-3.12-1.96-5.5-1.96v15.16Z"/>
      </g>
      <g>
        <path class="cls-1" d="M509.73,289.7h1.32l5.24-10.99h14.99l5.35,10.99h1.32l-14.13-29.52-14.09,29.52ZM516.81,277.59l6.93-14.65,7.08,14.65h-14.01Z"/>
        <path class="cls-1" d="M538.73,290.19h-2.41l-5.35-10.99h-14.37l-5.24,10.99h-2.41l14.87-31.16,14.91,31.16ZM536.94,289.21h.22l-13.34-27.88-13.31,27.88h.22l5.24-10.99h15.62l5.35,10.99ZM531.61,278.08h-15.58l7.71-16.29,7.87,16.29ZM517.59,277.1h12.45l-6.29-13.01-6.16,13.01Z"/>
      </g>
      <g>
        <polygon class="cls-1" points="540.13 260.87 540.13 261.98 552.56 261.98 540.13 289.7 554.33 289.7 554.33 288.58 541.97 288.58 554.44 260.87 540.13 260.87"/>
        <path class="cls-1" d="M554.83,290.19h-15.46l12.43-27.72h-12.16v-2.1h15.57l-12.47,27.72h12.09v2.1ZM540.89,289.21h12.95v-.13h-12.63l12.47-27.72h-13.06v.13h12.7l-12.43,27.72Z"/>
      </g>
      <g>
        <rect class="cls-1" x="558.47" y="260.87" width="1.24" height="28.83"/>
        <path class="cls-1" d="M560.21,290.19h-2.23v-29.82h2.23v29.82ZM558.97,289.21h.25v-27.84h-.25v27.84Z"/>
      </g>
      <g>
        <polygon class="cls-1" points="567.1 260.87 565.86 260.87 565.86 289.7 575.84 289.7 575.84 288.58 567.1 288.58 567.1 260.87"/>
        <path class="cls-1" d="M576.34,290.19h-10.97v-29.82h2.23v27.72h8.74v2.1ZM566.35,289.21h9v-.13h-8.74v-27.72h-.25v27.84Z"/>
      </g>
      <g>
        <rect class="cls-1" x="588.09" y="260.87" width="1.24" height="28.83"/>
        <path class="cls-1" d="M589.82,290.19h-2.23v-29.82h2.23v29.82ZM588.58,289.21h.25v-27.84h-.25v27.84Z"/>
      </g>
      <g>
        <polygon class="cls-1" points="616.27 286.78 595.47 260.44 595.47 289.7 596.56 289.7 596.56 263.75 617.36 290.12 617.36 260.87 616.27 260.87 616.27 286.78"/>
        <path class="cls-1" d="M617.85,291.55l-20.8-26.37v25.02h-2.08v-31.17l20.8,26.33v-24.98h2.08v31.17ZM595.96,289.21h.1v-26.88l20.8,26.37v-27.34h-.1v26.84l-20.8-26.33v27.34Z"/>
      </g>
      <g>
        <polygon class="cls-1" points="631.6 289.7 641.73 289.7 641.73 288.58 632.84 288.58 632.84 278.78 640.26 278.78 640.26 277.67 632.84 277.67 632.84 261.98 641.73 261.98 641.73 260.87 631.6 260.87 631.6 289.7"/>
        <path class="cls-1" d="M642.23,290.19h-11.12v-29.82h11.12v2.1h-8.89v14.7h7.42v2.1h-7.42v8.81h8.89v2.1ZM632.09,289.21h9.15v-.13h-8.89v-10.79h7.42v-.13h-7.42v-16.67h8.89v-.13h-9.15v27.84Z"/>
      </g>
      <g>
        <polygon class="cls-1" points="655.75 287.43 644.07 260.87 642.71 260.87 655.63 290.35 668.56 260.87 667.28 260.87 655.75 287.43"/>
        <path class="cls-1" d="M655.63,291.58l-13.68-31.21h2.43l11.35,25.82,11.21-25.82h2.36l-13.68,31.21ZM643.47,261.36l12.17,27.76,12.17-27.76h-.2l-11.85,27.3-12-27.3h-.28Z"/>
      </g>
      <g>
        <polygon class="cls-1" points="671.53 289.7 681.67 289.7 681.67 288.58 672.78 288.58 672.78 278.78 680.2 278.78 680.2 277.67 672.78 277.67 672.78 261.98 681.67 261.98 681.67 260.87 671.53 260.87 671.53 289.7"/>
        <path class="cls-1" d="M682.16,290.19h-11.12v-29.82h11.12v2.1h-8.89v14.7h7.42v2.1h-7.42v8.81h8.89v2.1ZM672.03,289.21h9.15v-.13h-8.89v-10.79h7.42v-.13h-7.42v-16.67h8.89v-.13h-9.15v27.84Z"/>
      </g>
      <g>
        <path class="cls-1" d="M687.54,279.24c1.63,0,3.13-.4,4.48-1.21s2.43-1.92,3.22-3.33c.79-1.41,1.19-2.96,1.19-4.65,0-2.95-.8-5.22-2.39-6.8s-3.86-2.38-6.8-2.38h-1.62v28.83h1.21v-9.15l8.55,9.15h1.62l-9.72-10.46h.26ZM686.83,261.98h.49c2.54,0,4.49.7,5.86,2.11,1.37,1.41,2.05,3.41,2.05,6,0,1.49-.34,2.84-1.02,4.06-.68,1.22-1.61,2.18-2.79,2.9-1.18.72-2.49,1.08-3.92,1.08h-.68v-16.15Z"/>
        <path class="cls-1" d="M698.13,290.19h-2.97l-7.84-8.39v8.39h-2.19v-29.82h2.11c3.06,0,5.47.85,7.15,2.53,1.68,1.68,2.54,4.09,2.54,7.15,0,1.77-.42,3.42-1.25,4.89-.83,1.48-1.97,2.66-3.4,3.51-1.19.71-2.5,1.13-3.9,1.25l9.75,10.49ZM695.59,289.21h.27l-9.72-10.46h1.4c1.53,0,2.96-.38,4.23-1.14,1.28-.76,2.3-1.82,3.04-3.14.75-1.33,1.12-2.81,1.12-4.41,0-2.8-.76-4.97-2.25-6.45-1.49-1.49-3.66-2.24-6.45-2.24h-1.13v27.84h.22v-9.91l9.26,9.91ZM687.51,278.62h-1.17v-17.13h.98c2.66,0,4.75.76,6.21,2.26,1.46,1.5,2.19,3.63,2.19,6.34,0,1.56-.36,3.01-1.08,4.3-.72,1.29-1.71,2.33-2.96,3.08-1.25.76-2.66,1.15-4.17,1.15ZM687.32,277.63h.18c1.33,0,2.56-.34,3.66-1,1.1-.67,1.98-1.58,2.61-2.72.63-1.14.95-2.42.95-3.82,0-2.44-.64-4.34-1.91-5.65-1.27-1.3-3.12-1.96-5.5-1.96v15.16Z"/>
      </g>
      <g>
        <polygon class="cls-1" points="707.44 276.67 699.56 260.87 698.21 260.87 706.8 278.17 706.8 289.7 708.04 289.7 708.04 278.17 716.44 260.87 715.16 260.87 707.44 276.67"/>
        <path class="cls-1" d="M708.53,290.19h-2.23v-11.91l-8.89-17.91h2.46l7.56,15.18,7.42-15.18h2.38l-8.7,17.91v11.91ZM707.29,289.21h.25l.05-11.26,8.06-16.59h-.18l-8.03,16.42-8.18-16.42h-.25l8.29,16.8v11.04Z"/>
      </g>
      <g>
        <path class="cls-1" d="M731.58,271.36c.85-.33,1.58-.98,2.19-1.94s.9-1.97.9-3.02c0-1.82-.47-3.2-1.39-4.13-.93-.94-2.39-1.4-4.37-1.4h-1.21v28.83h1.21c1.76,0,3.36-.4,4.8-1.21,1.44-.81,2.58-1.95,3.41-3.42.83-1.47,1.24-3.17,1.24-5.09,0-2.41-.59-4.36-1.77-5.84s-2.85-2.41-5.01-2.77ZM728.91,261.94h.3c1.48,0,2.57.37,3.26,1.11.69.74,1.04,1.84,1.04,3.31,0,1.31-.42,2.41-1.24,3.31-.83.9-1.85,1.35-3.05,1.35h-.3v-9.07ZM736.1,284.47c-.7,1.31-1.66,2.33-2.86,3.06s-2.55,1.1-4.03,1.1h-.3v-16.57h.3c2.56,0,4.53.67,5.9,2.02,1.37,1.35,2.05,3.34,2.05,5.98,0,1.64-.35,3.11-1.06,4.42Z"/>
        <path class="cls-1" d="M728.91,290.19h-1.7v-29.82h1.7c2.11,0,3.7.52,4.72,1.55,1.02,1.03,1.54,2.54,1.54,4.48,0,1.14-.33,2.24-.98,3.28-.38.6-.8,1.09-1.28,1.47,1.69.49,3.06,1.39,4.07,2.67,1.25,1.57,1.88,3.64,1.88,6.15,0,2-.44,3.79-1.31,5.34-.87,1.55-2.08,2.76-3.6,3.61-1.51.85-3.21,1.27-5.04,1.27ZM728.2,289.21h.71c1.67,0,3.2-.39,4.56-1.15,1.36-.76,2.44-1.85,3.22-3.23.78-1.39,1.18-3.02,1.18-4.85,0-2.28-.56-4.14-1.66-5.54-.57-.71-1.26-1.29-2.08-1.73.49.28.93.62,1.33,1.01,1.46,1.44,2.2,3.57,2.2,6.33,0,1.71-.37,3.28-1.11,4.65h0c-.74,1.38-1.77,2.47-3.04,3.25-1.28.77-2.72,1.17-4.29,1.17h-.8v-17.56h.8c.22,0,.43,0,.63.01l-.12-.02.27-.11c-.26.04-.52.06-.79.06h-.8v-10.06h.8c1.62,0,2.84.43,3.62,1.27.78.83,1.17,2.06,1.17,3.64,0,1.43-.46,2.65-1.37,3.64-.23.25-.48.47-.73.66.55-.33,1.04-.83,1.46-1.5.55-.88.83-1.81.83-2.75,0-1.67-.42-2.95-1.25-3.78-.83-.83-2.18-1.26-4.02-1.26h-.71v27.84ZM729.4,272.55v15.58c1.31-.03,2.51-.37,3.58-1.02,1.12-.68,2.03-1.64,2.68-2.87h0c.66-1.23,1-2.64,1-4.19,0-2.49-.64-4.38-1.91-5.63-1.23-1.21-3.03-1.84-5.36-1.88ZM729.4,262.44v8.08c.98-.04,1.8-.43,2.5-1.18.75-.81,1.11-1.78,1.11-2.97,0-1.33-.3-2.32-.9-2.97-.56-.6-1.47-.93-2.7-.96Z"/>
      </g>
      <g>
        <rect class="cls-1" x="743.07" y="260.87" width="1.24" height="28.83"/>
        <path class="cls-1" d="M744.81,290.19h-2.23v-29.82h2.23v29.82ZM743.57,289.21h.25v-27.84h-.25v27.84Z"/>
      </g>
      <g>
        <polygon class="cls-1" points="748.27 261.98 754.79 261.98 754.79 289.7 756.03 289.7 756.03 261.98 762.48 261.98 762.48 260.87 748.27 260.87 748.27 261.98"/>
        <path class="cls-1" d="M756.53,290.19h-2.23v-27.72h-6.52v-2.1h15.19v2.1h-6.44v27.72ZM755.29,289.21h.25v-27.72h6.44v-.13h-13.21v.13h6.52v27.72Z"/>
      </g>
      <g>
        <polygon class="cls-1" points="776.38 261.98 776.38 260.87 766.24 260.87 766.24 289.7 776.38 289.7 776.38 288.58 767.49 288.58 767.49 278.78 774.91 278.78 774.91 277.67 767.49 277.67 767.49 261.98 776.38 261.98"/>
        <path class="cls-1" d="M776.87,290.19h-11.12v-29.82h11.12v2.1h-8.89v14.7h7.42v2.1h-7.42v8.81h8.89v2.1ZM766.74,289.21h9.15v-.13h-8.89v-10.79h7.42v-.13h-7.42v-16.67h8.89v-.13h-9.15v27.84Z"/>
      </g>
    </g>
  </g>
</svg>